HIERARCHY
ROOT RootJoint
{
    OFFSET   0.000000   0.000000   0.000000
    CHANNELS 6 Xposition Yposition Zposition Xrotation Yrotation Zrotation
    JOINT pelvis_lowerback
    {
        OFFSET   0.000000   0.093605   0.000000
        CHANNELS 3 Xrotation Yrotation Zrotation
        JOINT lowerback_torso
        {
            OFFSET   0.000000   0.100000   0.000000
            CHANNELS 3 Xrotation Yrotation Zrotation
            JOINT torso_head
            {
                OFFSET   0.000000   0.282350   0.000000
                CHANNELS 3 Xrotation Yrotation Zrotation
                End Site
                {
                    OFFSET   0.000000   0.192650   0.000000
                }
            }
            JOINT rTorso_Clavicle
            {
                OFFSET  -0.001000   0.157500   0.000000
                CHANNELS 3 Xrotation Yrotation Zrotation
                JOINT rShoulder
                {
                    OFFSET  -0.117647   0.000000   0.000000
                    CHANNELS 3 Xrotation Yrotation Zrotation
                    JOINT rElbow
                    {
                        OFFSET  -0.245000   0.000000   0.000000
                        CHANNELS 3 Xrotation Yrotation Zrotation
                        JOINT rWrist
                        {
                            OFFSET  -0.240000   0.000000   0.000000
                            CHANNELS 3 Xrotation Yrotation Zrotation
                            End Site
                            {
                                OFFSET  -0.116353  -0.002500   0.000000
                            }
                        }
                    }
                }
            }
            JOINT lTorso_Clavicle
            {
                OFFSET   0.001000   0.157500   0.000000
                CHANNELS 3 Xrotation Yrotation Zrotation
                JOINT lShoulder
                {
                    OFFSET   0.117647   0.000000   0.000000
                    CHANNELS 3 Xrotation Yrotation Zrotation
                    JOINT lElbow
                    {
                        OFFSET   0.245000   0.000000   0.000000
                        CHANNELS 3 Xrotation Yrotation Zrotation
                        JOINT lWrist
                        {
                            OFFSET   0.240000   0.000000   0.000000
                            CHANNELS 3 Xrotation Yrotation Zrotation
                            End Site
                            {
                                OFFSET   0.116353  -0.002500   0.000000
                            }
                        }
                    }
                }
            }
        }
    }
    JOINT rHip
    {
        OFFSET  -0.100000  -0.051395   0.000000
        CHANNELS 3 Xrotation Yrotation Zrotation
        JOINT rKnee
        {
            OFFSET   0.000000  -0.410000   0.000000
            CHANNELS 3 Xrotation Yrotation Zrotation
            JOINT rAnkle
            {
                OFFSET   0.000000  -0.390000   0.000000
                CHANNELS 3 Xrotation Yrotation Zrotation
                JOINT rToeJoint
                {
                    OFFSET   0.000000  -0.050000   0.130000
                    CHANNELS 3 Xrotation Yrotation Zrotation
                    End Site
                    {
                        OFFSET  -0.010000   0.002000   0.060000
                    }
                }
            }
        }
    }
    JOINT lHip
    {
        OFFSET   0.100000  -0.051395   0.000000
        CHANNELS 3 Xrotation Yrotation Zrotation
        JOINT lKnee
        {
            OFFSET   0.000000  -0.410000   0.000000
            CHANNELS 3 Xrotation Yrotation Zrotation
            JOINT lAnkle
            {
                OFFSET   0.000000  -0.390000   0.000000
                CHANNELS 3 Xrotation Yrotation Zrotation
                JOINT lToeJoint
                {
                    OFFSET   0.000000  -0.050000   0.130000
                    CHANNELS 3 Xrotation Yrotation Zrotation
                    End Site
                    {
                        OFFSET   0.010000   0.002000   0.060000
                    }
                }
            }
        }
    }
}
MOTION
Frames: 17
Frame Time:   0.008333
 -2.376719   0.925631   3.975860   0.000000   0.000000   0.000000   0.000000   0.000000   0.000000   0.000000   0.000000   0.000000   0.000000   0.000000   0.000000   0.000000   0.000000   0.000000   0.000000   0.000000   0.000000   0.000000   0.000000   0.000000   0.000000   0.000000   0.000000   0.000000   0.000000   0.000000   0.000000   0.000000   0.000000   0.000000   0.000000   0.000000   0.000000   0.000000   0.000000   0.000000   0.000000   0.000000   0.000000   0.000000   0.000000   0.000000   0.000000   0.000000   0.000000   0.000000   0.000000   0.000000   0.000000   0.000000   0.000000   0.000000   0.000000   0.000000   0.000000   0.000000   0.000000   0.000000   0.000000
 -2.377685   0.925629   3.974579   1.946856   0.117196  -0.620319  -2.150720  -0.032924   0.370385   0.182105  -0.239812   0.305773  -0.048444   0.124480  -0.066843   0.340435  -0.764132  -0.523143   0.997462   0.436439   2.449019   0.010224   0.584538  -0.006740   0.264321   0.127580  -1.798439   0.452275   0.750170   0.453282   1.424635   0.105934  -2.383845   0.011717  -0.712490   0.011515   0.286049  -0.474548   1.450121  -2.479337  -0.468611   0.879507   0.927674  -0.002177  -0.002601  -0.530632  -0.537038  -0.422376   0.038425   0.000053  -0.000289  -2.520635   0.508645   0.779871   0.213394  -0.000299   0.001218  -1.009426   0.531649  -0.668905   0.555247   0.002486   0.005687
 -2.378933   0.926597   3.973369   3.923999   0.169209  -1.181641  -4.167375  -0.059630   0.610877   0.313046  -0.461283   0.613336  -0.097322   0.240562  -0.125265   0.664049  -1.623157  -0.423886   1.972548   0.816657   5.357082   0.022434   1.116244  -0.011697   0.569660   0.326157  -2.936779   0.886521   1.621255   0.381622   2.852225   0.278701  -5.170546   0.025701  -1.351064   0.019819   0.631900  -0.997146   2.308925  -4.873129  -0.970692   1.780203   1.786171  -0.004513  -0.004784  -1.032305  -1.041033  -0.821160   0.047248   0.000045  -0.000299  -4.930432   0.996472   1.539903   0.707897  -0.001091   0.003640  -1.677482   1.042241  -1.278498   0.962856   0.003511   0.008466
 -2.380316   0.927664   3.972111   5.877362   0.238046  -1.779178  -6.028311  -0.113862   0.869837   0.441587  -0.680420   0.916000  -0.137057   0.347683  -0.186315   0.974597  -2.504589   0.026228   2.921991   1.178319   8.534903   0.033228   1.587179  -0.015070   0.859670   0.421522  -3.434766   1.297892   2.506485  -0.023328   4.279341   0.442701  -8.221474   0.038417  -1.921760   0.025537   0.963130  -1.399293   2.584711  -7.115842  -1.489099   2.755448   2.576940  -0.006563  -0.005908  -1.506357  -1.507538  -1.196480   0.035949   0.000040  -0.000161  -7.219516   1.427575   2.334199   0.998540  -0.001370   0.004505  -2.457180   1.533100  -1.845024   1.381015   0.004263   0.010683
 -2.381729   0.928626   3.970783   7.783279   0.324734  -2.352925  -7.734066  -0.183554   1.100599   0.581448  -0.894929   1.199098  -0.165721   0.447354  -0.245109   1.279749  -3.368234   0.700830   3.847012   1.557358  11.893109   0.041906   2.011493  -0.017308   1.131175   0.433787  -3.501341   1.690677   3.363019  -0.642746   5.707775   0.555815 -11.451330   0.049007  -2.441729   0.029403   1.275218  -1.715336   2.467194  -9.193547  -2.013279   3.713433   3.315006  -0.008160  -0.006301  -1.952535  -1.939119  -1.549667   0.016614   0.000045  -0.000011  -9.425585   1.803268   3.086641   1.184985  -0.001400   0.004630  -3.202911   1.998292  -2.366160   1.748641   0.004604   0.011860
 -2.383127   0.929422   3.969414   9.634041   0.418429  -2.880411  -9.298601  -0.257185   1.294246   0.731239  -1.098222   1.453772  -0.183466   0.540405  -0.301920   1.581126  -4.189671   1.513762   4.745078   1.976552  15.374842   0.048497   2.400438  -0.018710   1.387827   0.405249  -3.286242   2.065376   4.172090  -1.398656   7.134984   0.596269 -14.806720   0.057340  -2.922040   0.031866   1.570101  -1.987303   2.093075 -11.107067  -2.536450   4.620214   4.008208  -0.009313  -0.006292  -2.371465  -2.338864  -1.882086  -0.003905   0.000054   0.000105 -11.557389   2.130448   3.769215   1.309466  -0.001310   0.004376  -3.892217   2.440001  -2.850476   2.081071   0.004710   0.012348
 -2.384493   0.930042   3.968042  11.429328   0.511854  -3.356649 -10.738953  -0.328009   1.453030   0.883727  -1.285883   1.678921  -0.191727   0.627327  -0.356673   1.877046  -4.957073   2.405171   5.611817   2.447509  18.940818   0.053232   2.761323  -0.019477   1.632965   0.365604  -2.890864   2.420766   4.927133  -2.236916   8.556434   0.553929 -18.250303   0.063543  -3.369424   0.033222   1.849438  -2.240428   1.553978 -12.862902  -3.053386   5.468021   4.661154  -0.010086  -0.006082  -2.764340  -2.709478  -2.194882  -0.022996   0.000063   0.000181 -13.617324   2.414329   4.375985   1.390164  -0.001163   0.003920  -4.523461   2.859713  -3.303573   2.384237   0.004664   0.012345
 -2.385674   0.929926   3.966677  12.606711   0.696253  -3.504784 -11.572084  -0.300345   1.305304   1.160983  -1.410072   1.837357  -0.271006   0.668850  -0.524931   2.218850  -5.433142   2.603787   6.697445   2.828633  22.937766   0.056142   3.124012  -0.021496   2.007069   0.365406  -1.625066   2.460396   5.630979  -2.509140   9.931265  -0.015659 -21.896632   0.066839  -3.798542   0.033254   2.165409  -2.296726   0.300847 -13.918318  -3.583849   6.004887   5.105779  -0.009966  -0.005653  -3.262318  -3.479655  -2.724291   0.047178   0.000090  -0.000475 -15.971845   3.345765   4.705366   3.965984  -0.003964   0.032635  -6.532635   3.402940  -3.674692   2.432876   0.003830   0.010625
 -2.386738   0.929003   3.965824  13.563553   0.714473  -3.533956 -12.348395  -0.174629   1.138207   1.482729  -1.456071   1.919935  -0.320448   0.712853  -0.695786   2.526225  -5.836141   2.658459   7.697696   3.275062  26.669279   0.056651   3.470934  -0.022220   2.387826   0.420329  -0.288537   2.490200   6.281962  -2.696335  11.169080  -0.636957 -25.262270   0.067768  -4.214236   0.032158   2.470852  -2.432176  -1.023750 -14.771890  -4.073244   6.506246   5.536327  -0.010015  -0.005850  -3.735756  -4.198552  -3.226712   0.110047   0.000068  -0.000994 -18.101170   4.272423   4.999701   6.829097  -0.004576   0.054176  -8.377116   3.943709  -4.015622   2.444395   0.003083   0.008660
 -2.387695   0.927417   3.965380  14.406699   0.654420  -3.469821 -13.110348  -0.025903   0.948070   1.769517  -1.468083   1.954671  -0.363973   0.755397  -0.858833   2.802431  -6.206833   2.644532   8.598749   3.745612  30.101329   0.055387   3.798088  -0.021755   2.752312   0.499001   0.930063   2.523379   6.910112  -2.839785  12.292114  -1.262644 -28.372733   0.066481  -4.599314   0.030075   2.759383  -2.569773  -2.264868 -15.537287  -4.538714   6.979757   5.947404  -0.010144  -0.006206  -4.183036  -4.866265  -3.701809   0.173298   0.000010  -0.001428 -20.053426   5.137044   5.251123   9.592717  -0.003449   0.066447 -10.085081   4.465622  -4.328106   2.483950   0.002514   0.007422
 -2.388556   0.925314   3.965255  15.150241   0.570899  -3.328465 -13.846344   0.120539   0.738210   2.018423  -1.470995   1.951957  -0.408697   0.795314  -1.012902   3.055874  -6.562855   2.584797   9.414552   4.218685  33.265196   0.052862   4.101333  -0.020478   3.097302   0.568201   2.017441   2.561129   7.515338  -2.956175  13.312516  -1.882866 -31.255148   0.063654  -4.953499   0.027454   3.031231  -2.680650  -3.418623 -16.232832  -4.980540   7.428515   6.335372  -0.010285  -0.006459  -4.605186  -5.486317  -4.150839   0.236111  -0.000074  -0.001757 -21.876318   5.943267   5.454032  12.205584  -0.001415   0.072455 -11.671162   4.967140  -4.616074   2.528775   0.002063   0.006446
 -2.389335   0.922818   3.965389  15.789700   0.486724  -3.121336 -14.544079   0.257350   0.513879   2.241317  -1.474997   1.919477  -0.454013   0.832676  -1.158331   3.292493  -6.910358   2.494362  10.156412   4.683709  36.188353   0.049539   4.379937  -0.018725   3.424441   0.612668   2.994379   2.602574   8.094344  -3.054941  14.239448  -2.493989 -33.931057   0.059867  -5.279649   0.024632   3.288656  -2.764605  -4.498923 -16.860960  -5.397269   7.856675   6.702106  -0.010416  -0.006546  -5.003222  -6.061956  -4.574909   0.297849  -0.000177  -0.001986 -23.598955   6.699253   5.608434  14.671156   0.001019   0.074357 -13.144953   5.448411  -4.883116   2.572931   0.001704   0.005619
 -2.390044   0.920036   3.965752  16.318499   0.408476  -2.857089 -15.195848   0.383056   0.280671   2.448782  -1.483341   1.863931  -0.498192   0.867706  -1.295607   3.515704  -7.250246   2.382995  10.833103   5.135516  38.893271   0.045787   4.634945  -0.016741   3.736066   0.628643   3.880603   2.646598   8.645012  -3.141210  15.080985  -3.093189 -36.418084   0.055540  -5.580726   0.021817   3.533569  -2.828000  -5.517339 -17.422557  -5.788243   8.268253   7.050275  -0.010531  -0.006486  -5.378174  -6.596324  -4.975085   0.358098  -0.000292  -0.002127 -25.239767   7.412263   5.716907  17.000299   0.003564   0.073486 -14.515168   5.909694  -5.132054   2.614868   0.001421   0.004901
 -2.390078   0.916011   3.966468  16.564188   0.379082  -2.438858 -15.517826   0.411336   0.055850   2.522464  -1.495985   1.758586  -0.618088   0.704802  -1.510839   3.669041  -7.487252   1.801670  11.430905   5.573985  41.032638   0.039197   4.793640  -0.014184   3.905464   0.746677   5.594034   2.738818   9.297594  -2.928260  15.920003  -3.758698 -38.436099   0.051869  -5.997543   0.020110   3.721821  -3.019445  -7.261777 -17.525772  -5.804052   8.357576   6.624164  -0.006570  -0.004791  -5.252883  -7.332407  -5.318202   0.658417  -0.000646  -0.004076 -26.383092   7.986709   5.635750  19.206695   0.005271   0.068154 -15.435617   6.185844  -5.405163   2.626907   0.001149   0.004003
 -2.389720   0.912045   3.967144  16.741324   0.451373  -1.848853 -15.796113   0.405657  -0.242062   2.590577  -1.528363   1.598303  -0.746936   0.541878  -1.715950   3.788236  -7.674998   1.020171  11.973960   5.987885  42.822701   0.033036   4.935610  -0.011952   4.061379   0.811321   6.987851   2.809000   9.872511  -2.549061  16.681366  -4.394898 -40.153473   0.046621  -6.386949   0.018165   3.895889  -3.228757  -8.749205 -17.626307  -5.795443   8.132528   6.130246  -0.003656  -0.003570  -5.136445  -8.022193  -5.639619   0.986340  -0.000761  -0.005569 -27.609027   8.593892   5.334537  21.479225   0.008389   0.064579 -16.190425   6.485895  -5.754658   2.708402   0.001122   0.003806
 -2.389215   0.908333   3.967866  16.939509   0.226782  -1.369963 -16.126136   0.496766  -0.336761   2.629465  -1.482946   1.506875  -0.874393   0.393141  -1.900612   3.874460  -7.814212   0.093002  12.465148   6.383925  44.332067   0.027617   5.068726  -0.009980   4.211943   0.850721   8.032163   2.881934  10.426199  -2.084835  17.390710  -4.982959 -41.672833   0.040764  -6.743107   0.016166   4.061470  -3.404135  -9.998681 -17.596332  -5.868200   7.983074   5.732004  -0.001989  -0.001365  -5.583638  -8.775920  -6.184200  -3.759550  -0.011035   0.047669 -28.742198   9.169197   5.215286  23.560482   0.009728   0.055816 -16.923051   6.759211  -6.045316   2.774165   0.001043   0.003360
 -2.389752   0.907958   3.968804  17.209888   0.084997  -1.761543 -16.543912   0.441173   0.103586   2.615866  -1.520056   1.742385  -0.991082   0.248474  -2.038863   3.955775  -7.951548  -0.721307  12.922739   6.747250  45.674307   0.023025   5.177735  -0.008304   4.365138   0.788796   8.748030   2.916002  10.902782  -1.732914  18.012979  -5.570948 -43.069661   0.035704  -7.077113   0.014038   4.227741  -3.519970 -10.965790 -17.754704  -5.580090   8.495390   5.605754  -0.001519  -0.001397  -5.573748  -9.044759  -6.495474  -3.117655  -0.007103   0.038309 -29.898335   9.514765   5.935479  25.241111   0.009984   0.052060 -17.662361   6.987336  -6.245221   2.895969   0.000954   0.003485
